<svg id="Layer_1" enable-background="new 0 0 510 510" height="512" viewBox="0 0 510 510" width="512" xmlns="http://www.w3.org/2000/svg" fill="#FFFFFF"><g><path d="m375 0h30v30h-30z"/><path d="m450 120h30v30h-30z"/><path d="m285 60h30v30h-30z"/><path d="m180 15h30v30h-30z"/><path d="m90 195c28.704 0 55.933-13.89 72.837-37.156l14.746-20.295-24.857-3.385c-46.641-6.352-81.449-48.575-77.398-96.821l2.095-24.923-22.973 9.888c-33.077 14.237-54.45 46.696-54.45 82.692 0 49.626 40.374 90 90 90zm-43.537-131.3c6.685 42.453 35.401 77.388 74.207 92.826-9.178 5.463-19.766 8.474-30.67 8.474-33.084 0-60-26.916-60-60 0-15.685 6.087-30.362 16.463-41.3z"/><path d="m487.565 480-213.913-289.412 23.41-31.672-24.125-17.832-17.937 24.268-17.938-24.268-24.125 17.832 23.41 31.672-213.912 289.412h-22.435v30h510v-30zm-232.565-264.176 195.261 264.176h-82.026l-113.235-177.94-113.234 177.94h-82.027zm-15 264.176h-62.675l62.675-98.489zm30-98.489 62.675 98.489h-62.675z"/></g></svg>