<svg id="Layer_1"  fill="#FFFFFF" enable-background="new 0 0 510 510" height="512" viewBox="0 0 510 510" width="512" xmlns="http://www.w3.org/2000/svg"><g><path d="m435 0h-360c-41.355 0-75 33.645-75 75v360c0 41.355 33.645 75 75 75h360c41.355 0 75-33.645 75-75v-360c0-41.355-33.645-75-75-75zm45 435c0 24.813-20.187 45-45 45h-360c-24.813 0-45-20.187-45-45v-360c0-24.813 20.187-45 45-45h360c24.813 0 45 20.187 45 45z"/><path d="m390 60c-33.084 0-60 26.916-60 60 3.296 79.598 116.716 79.575 120 0 0-33.084-26.916-60-60-60zm0 90c-16.542 0-30-13.458-30-30 1.648-39.799 58.358-39.787 60 0 0 16.542-13.458 30-30 30z"/><path d="m255 180c-41.355 0-75 33.645-75 75 4.12 99.498 145.895 99.469 150-.001 0-41.354-33.645-74.999-75-74.999zm0 120c-24.813 0-45-20.187-45-45 2.472-59.699 87.537-59.681 90 0 0 24.813-20.187 45-45 45z"/><path d="m120 330c-33.084 0-60 26.916-60 60 3.296 79.598 116.716 79.575 120 0 0-33.084-26.916-60-60-60zm0 90c-16.542 0-30-13.458-30-30 1.648-39.799 58.358-39.788 60 0 0 16.542-13.458 30-30 30z"/><path d="m390 330c-33.084 0-60 26.916-60 60 3.296 79.598 116.716 79.575 120 0 0-33.084-26.916-60-60-60zm0 90c-16.542 0-30-13.458-30-30 1.648-39.799 58.358-39.788 60 0 0 16.542-13.458 30-30 30z"/><path d="m120 180c33.084 0 60-26.916 60-60-3.296-79.598-116.716-79.575-120 0 0 33.084 26.916 60 60 60zm0-90c16.542 0 30 13.458 30 30-1.648 39.799-58.358 39.787-60 0 0-16.542 13.458-30 30-30z"/></g></svg>