<svg id="Capa_1"  fill="#FFFFFF" enable-background="new 0 0 512 512" height="512" viewBox="0 0 512 512" width="512" xmlns="http://www.w3.org/2000/svg"><path d="m481.421 330.421h-78.171c-5.522 0-10 4.477-10 10v10.59h-25.983v-11.571c0-5.523-4.478-10-10-10h-57.327c11.413-14.103 21.942-33.373 25.587-58.551 8.831-61.01-33.839-119.785-35.66-122.257-2.603-3.534-7.208-4.957-11.352-3.51-4.145 1.449-6.858 5.431-6.693 9.818 1.539 40.715-12.423 65.719-26.048 71.721-3.816 1.682-6.853 1.447-9.026-.697-3.822-3.771-3.701-6.61.865-20.253 5.537-16.544 13.906-41.546-2.156-78.253-27.828-63.596-87.914-68.786-90.458-68.976-3.961-.292-7.719 1.779-9.579 5.287s-1.469 7.784.997 10.896c9.529 12.025 35.203 51.182 28.679 72.951-3.267 9.547-9.913 12.122-13.596 12.806-4.854.902-9.721-.471-12.626-3.512-12.037-20.716-29.582-32.045-53.603-34.623-3.678-.39-7.355 1.125-9.43 4.191-2.059 3.046-2.355 6.825-.656 10.078.647 1.526 7.405 19.042-11.382 43.965-25.235 30.702-36.371 60.922-33.098 89.822 2.367 20.894 12.47 40.996 29.537 59.097h-50.242c-5.522 0-10 4.477-10 10v13.062c0 55.716 45.328 101.044 101.044 101.044h165.179c49.395 0 90.626-35.627 99.345-82.534h27.683v10.591c0 5.523 4.478 10 10 10h78.171c16.861 0 30.579-13.718 30.579-30.602-.001-16.862-13.719-30.58-30.58-30.58zm-430.843-62.329c-2.646-23.362 7.042-48.602 28.798-75.019.086-.105.171-.212.253-.32 14.408-19.028 17.52-35.776 17.173-47.499 10.707 3.938 18.88 11.266 25.194 22.429.292.515.628 1.004 1.006 1.459 7.499 9.043 19.818 13.235 32.152 10.943 13.436-2.498 24.254-12.3 28.94-26.221.029-.086.057-.173.084-.26 6.704-21.879-5.233-49.203-16.482-68.343 16.226 7.109 36.854 21.459 49.438 50.214 12.973 29.648 6.618 48.633 1.513 63.887-4.345 12.98-9.27 27.693 4.054 40.838 8.107 7.999 19.748 9.779 31.137 4.763 14.363-6.328 30.148-24.62 35.876-56.912 10.008 20.763 20.273 50.585 16.021 79.972-4.3 29.698-20.146 49.612-33.325 61.417h-182.58c-16.63-13.21-36.174-34.184-39.252-61.348zm296.689 84.41c0 44.688-36.356 81.044-81.044 81.044h-165.179c-44.688 0-81.044-36.356-81.044-81.044v-3.062h327.267zm134.154 19.1h-68.171v-21.181h68.171c5.833 0 10.579 4.746 10.579 10.602 0 5.833-4.746 10.579-10.579 10.579z"/></svg>