<?xml version="1.0" encoding="iso-8859-1"?>
<!-- Generator: Adobe Illustrator 19.0.0, SVG Export Plug-In . SVG Version: 6.00 Build 0)  -->
<svg fill="#FFFFFF" version="1.1" id="Capa_1" xmlns="http://www.w3.org/2000/svg" xmlns:xlink="http://www.w3.org/1999/xlink" x="0px" y="0px"
	 viewBox="0 0 512 512" style="enable-background:new 0 0 512 512;" xml:space="preserve">
<g>
	<g>
		<path d="M481,410.582c0-17.879,0-140.551,0-155.582c0-57.897-47.103-105-105-105c-57.967,0-105,47.174-105,105
			c0,15.158,0,137.546,0,156.331c-5.809,7.284-10.822,15.066-15,23.234c-6.294-12.304-14.479-23.733-24.42-33.904
			c-11.344-11.605-24.317-20.897-38.375-27.656C221.955,354.254,241,321.811,241,285v-30c0-57.897-47.103-105-105-105H15
			c-8.284,0-15,6.716-15,15c0,28.907,11.855,55.122,31,74.128V285c0,36.775,19.008,69.19,47.711,87.951
			C33.632,394.448,0,441.512,0,497c0,8.284,6.716,15,15,15c13.596,0,468.404,0,482,0c8.284,0,15-6.716,15-15
			C512,465.35,501.077,435.127,481,410.582z M31.527,180H136c36.219,0,66.524,25.809,73.493,60H106
			C69.286,240,38.579,214.139,31.527,180z M61,285v-24.946C74.667,266.428,89.919,270,106,270h105v15c0,41.355-33.645,75-75,75
			S61,326.355,61,285z M31.09,482c7.476-51.207,52.481-92,104.91-92c52.904,0,96.794,40.073,103.972,92H31.09z M376,180
			c36.219,0,66.522,25.808,73.491,60h-39.269c-32.991,0-63.761-15.366-83.56-41.415C339.86,187.028,357.12,180,376,180z M301,255
			c0-11.337,2.542-22.088,7.065-31.732C333.533,252.791,370.634,270,410.222,270H451v15c0,41.355-33.645,75-75,75
			c-41.355,0-75-33.645-75-75V255z M451,358.403v24.701c-5.675-3.848-11.594-7.236-17.711-10.154
			C439.714,368.751,445.652,363.867,451,358.403z M301,358.403c5.372,5.489,11.338,10.391,17.796,14.603
			c-6.155,2.959-12.103,6.401-17.796,10.314V358.403z M272.028,482c7.177-51.927,51.068-92,103.972-92
			c52.429,0,97.434,40.793,104.91,92H272.028z"/>
	</g>
</g>
<g>
	<g>
		<path d="M293.211,0C278.723,0,265.977,5.894,256,17.125C246.023,5.894,233.277,0,218.789,0c-29.277,0-52.211,24.332-52.211,55.394
			c-0.001,32.606,25.35,54.002,60.436,83.616c6.122,5.167,12.452,10.51,19.162,16.325c2.819,2.443,6.321,3.665,9.824,3.665
			s7.005-1.222,9.824-3.665c6.71-5.816,13.042-11.159,19.164-16.327c32.535-27.46,60.435-49.812,60.435-83.615
			C345.423,24.332,322.489,0,293.211,0z M265.637,116.083c-3.147,2.657-6.35,5.36-9.638,8.155c-3.287-2.795-6.489-5.497-9.636-8.153
			c-33.624-28.38-49.787-42.815-49.787-60.691C196.577,42.775,204.207,30,218.789,30c16.107,0,22.335,19.851,22.767,21.296
			c1.744,6.573,7.641,11.153,14.445,11.153c6.804,0,12.701-4.579,14.445-11.153C270.876,49.851,277.104,30,293.211,30
			c14.582,0,22.211,12.775,22.211,25.394C315.422,74.022,296.508,90.027,265.637,116.083z"/>
	</g>
</g>
<g>
</g>
<g>
</g>
<g>
</g>
<g>
</g>
<g>
</g>
<g>
</g>
<g>
</g>
<g>
</g>
<g>
</g>
<g>
</g>
<g>
</g>
<g>
</g>
<g>
</g>
<g>
</g>
<g>
</g>
</svg>
