<svg id="Layer_1" fill="#FFFFFF" enable-background="new 0 0 509.381 509.381" height="512" viewBox="0 0 509.381 509.381" width="512" xmlns="http://www.w3.org/2000/svg"><g><g><path d="m508.768 334.328-19.345-165.242c-4.691-40.07-43.626-73.924-85.021-73.924h-299.424c-41.395 0-80.329 33.854-85.021 73.924l-19.343 165.242c-2.002 17.103.927 34.018 8.246 47.63 8.219 15.283 21.266 25.692 37.73 30.104 5.387 1.443 10.854 2.157 16.291 2.157 11.18 0 22.229-3.019 32.184-8.921 14.265-8.459 25.102-22.087 30.514-38.372l17.204-51.764h4.053c4.452 17.233 20.13 30 38.734 30s34.283-12.767 38.735-30h60.771c4.452 17.233 20.13 30 38.734 30s34.283-12.767 38.735-30h4.052l17.204 51.764c5.413 16.285 16.25 29.913 30.515 38.372 14.794 8.772 32.01 11.175 48.475 6.764s29.512-14.82 37.729-30.104c7.32-13.611 10.249-30.527 8.248-47.63zm-323.198-9.166c-11.028 0-20-8.973-20-20.001s8.972-20 20-20 20.001 8.972 20.001 20-8.972 20.001-20.001 20.001zm138.241 0c-11.028 0-20-8.973-20-20.001s8.972-20 20-20 20.001 8.972 20.001 20-8.973 20.001-20.001 20.001zm133.804 67.581c-23.118 6.194-46.689-7.617-54.835-32.126l-19.479-58.609c-1.358-4.087-5.182-6.846-9.489-6.846h-11.266c-4.452-17.233-20.13-30.001-38.735-30.001-18.604 0-34.283 12.768-38.734 30.001h-60.771c-4.452-17.233-20.13-30.001-38.735-30.001-18.604 0-34.283 12.768-38.734 30.001h-11.267c-4.308 0-8.131 2.759-9.489 6.846l-19.479 58.609c-8.146 24.509-31.723 38.316-54.834 32.126-25.354-6.793-33.983-33.065-31.287-56.089l19.344-165.242c3.507-29.965 33.954-56.25 65.155-56.25h74.713v49.999c0 16.539 13.455 29.997 29.994 30h.002c5.521 0 9.999-4.476 10-9.998.001-5.523-4.476-10.001-9.998-10.002-5.513-.001-9.998-4.487-9.998-10v-49.999h109.997v49.999c0 5.514-4.486 10-10 10h-.003c-5.522 0-9.999 4.478-9.999 10s4.479 10 10.002 10c16.542 0 30-13.458 30-30v-49.999h74.712c31.201 0 61.648 26.285 65.155 56.25l19.345 165.241c2.696 23.025-5.933 49.297-31.287 56.09z"/><path d="m140.991 185.164c-.001-16.542-13.459-30-30.001-30s-30 13.458-30 30c-16.542 0-30 13.458-30 30s13.458 30 30 30c0 16.542 13.458 30 30 30s30-13.458 30-30h.001c16.542 0 29.999-13.458 29.999-30s-13.457-30-29.999-30zm0 40h-10.001c-5.522 0-10 4.478-10 10v10c0 5.514-4.486 10-10 10s-10-4.486-10-10v-10c0-5.522-4.478-10-10-10h-10c-5.514 0-10-4.486-10-10s4.486-10 10-10h10c5.522 0 10-4.478 10-10v-10c0-5.514 4.486-10 10-10s10 4.486 10 10v10c0 5.522 4.478 10 10 10h10.001c5.514 0 9.999 4.486 9.999 10s-4.485 10-9.999 10z"/><path d="m428.391 185.164c0-16.542-13.458-30-30-30s-30 13.458-30 30c-16.542 0-30 13.458-30 30s13.458 30 30 30c0 16.542 13.458 30 30 30s30-13.458 30-30c16.542 0 30-13.458 30-30s-13.458-30-30-30zm0 40h-10c-5.522 0-10 4.478-10 10v10c0 5.514-4.486 10-10 10s-10-4.486-10-10v-10c0-5.522-4.478-10-10-10h-10c-5.514 0-10-4.486-10-10s4.486-10 10-10h10c5.522 0 10-4.478 10-10v-10c0-5.514 4.486-10 10-10s10 4.486 10 10v10c0 5.522 4.478 10 10 10h10c5.514 0 10 4.486 10 10s-4.487 10-10 10z"/><path d="m283.49 215.163h-57.6c-5.522 0-10 4.478-10 10s4.478 10 10 10h57.6c5.522 0 10-4.478 10-10s-4.477-10-10-10z"/><path d="m267.176 255.164h-24.97c-5.522 0-10 4.478-10 10s4.478 10 10 10h24.97c5.522 0 10-4.478 10-10s-4.478-10-10-10z"/><path d="m254.69 195.161c5.522 0 10-4.478 10-10s-4.478-10-10-10h-.007c-5.522 0-9.996 4.478-9.996 10s4.481 10 10.003 10z"/></g></g></svg>