<?xml version="1.0" encoding="iso-8859-1"?>
<!-- Generator: Adobe Illustrator 19.0.0, SVG Export Plug-In . SVG Version: 6.00 Build 0)  -->
<svg version="1.1" fill="#FFFFFF" id="Capa_1" xmlns="http://www.w3.org/2000/svg" xmlns:xlink="http://www.w3.org/1999/xlink" x="0px" y="0px"
	 viewBox="0 0 512 512" style="enable-background:new 0 0 512 512;" xml:space="preserve">
<g>
	<g>
		<circle cx="104.999" cy="436.866" r="15"/>
	</g>
</g>
<g>
	<g>
		<circle cx="436.997" cy="436.866" r="15"/>
	</g>
</g>
<g>
	<g>
		<path d="M496.996,209.873c-31.125,0-285.334,0-341.299,0l345.338-96.553c8.259-2.31,12.899-11.063,10.191-19.189L490.15,30.902
			c-7.507-22.518-31.353-35.365-54.268-29.255C434.232,2.081,42.916,105.907,41.95,106.164
			c-24.753,6.601-39.186,32.691-31.223,57.327l7.137,25.515C7.021,197.228,0,210.244,0,224.873c0,19.555,12.541,36.228,30,42.42
			v199.578c0,24.813,20.187,45,45,45h391.997c24.813,0,45-20.187,45-45V224.873C511.996,216.589,505.28,209.873,496.996,209.873z
			 M408.97,239.873l-40,60h-54.945l40-60H408.97z M317.971,239.873l-40,60h-54.945l40-60H317.971z M173.027,239.873h53.945l-40,60
			h-53.945L173.027,239.873z M96.972,299.872H60v-32.58c12.764-4.527,22.893-14.656,27.42-27.42h49.553L96.972,299.872z
			 M443.594,30.639c7.647-2.04,15.594,2.245,18.096,9.75l16.094,48.282l-27.483,7.684l-63.872-50.549L443.594,30.639z
			 M350.223,55.411l64.356,50.93l-59.488,16.632l-65.159-51.566L350.223,55.411z M253.727,81.013l65.643,51.949l-59.467,16.626
			l-65.909-52.727L253.727,81.013z M157.932,106.429l66.385,53.108l-58.894,16.466l-67.174-53.74L157.932,106.429z M49.663,135.154
			l12.523-3.323l67.651,54.121l-47.823,13.371c-7.867-11.362-20.82-18.936-35.542-19.413l-6.942-24.821
			c-0.065-0.236-0.138-0.47-0.215-0.703C36.564,146.133,41.369,137.366,49.663,135.154z M45,239.873c-8.271,0-15-6.729-15-15
			s6.729-15,15-15s15,6.729,15,15S53.271,239.873,45,239.873z M481.996,466.871c0,8.271-6.729,15-15,15H74.999
			c-8.271,0-15-6.729-15-15V329.872c44.501,0,373.117,0,421.997,0V466.871z M481.996,299.872h-76.971l40-60h36.972V299.872z"/>
	</g>
</g>
<g>
</g>
<g>
</g>
<g>
</g>
<g>
</g>
<g>
</g>
<g>
</g>
<g>
</g>
<g>
</g>
<g>
</g>
<g>
</g>
<g>
</g>
<g>
</g>
<g>
</g>
<g>
</g>
<g>
</g>
</svg>
