<svg id="Capa_1" fill="#FFFFFF" enable-background="new 0 0 512 512" height="512" viewBox="0 0 512 512" width="512" xmlns="http://www.w3.org/2000/svg"><g><g><path d="m504.5 329.16c4.143 0 7.5-3.357 7.5-7.5v-120.209c0-11.376-9.256-20.632-20.632-20.632-1.953 0-3.836.291-5.628.8v-11.48c0-4.143-3.357-7.5-7.5-7.5h-21.504c-4.143 0-7.5 3.357-7.5 7.5s3.357 7.5 7.5 7.5h14.004l-.005 27.424h-5.632c-11.376 0-20.632 9.256-20.632 20.632s9.256 20.632 20.632 20.632h5.632v11.265h-5.632c-11.376 0-20.632 9.256-20.632 20.632 0 1.956.291 3.842.802 5.637h-12.754c-9.483-28.153-36.113-48.492-67.423-48.492s-57.94 20.339-67.423 48.492h-80.388c-9.483-28.153-36.113-48.492-67.422-48.492s-57.94 20.339-67.422 48.492h-37.141v-4.378c0-4.143-3.358-7.5-7.5-7.5s-7.5 3.357-7.5 7.5v11.878 30.3c0 4.143 3.358 7.5 7.5 7.5h44.644c4.507 13.379 12.885 24.985 23.804 33.488h-98.748c-4.142 0-7.5 3.357-7.5 7.5v102.026c0 4.143 3.358 7.5 7.5 7.5s7.5-3.357 7.5-7.5v-94.526h379.393c2.18 0 4.252-.948 5.676-2.598l16.949-19.626h43.472l9.194 7.224h-3.569c-1.926 0-3.777.741-5.172 2.069l-19.043 18.134h-16.193c-4.143 0-7.5 3.357-7.5 7.5s3.357 7.5 7.5 7.5h19.193c1.926 0 3.777-.741 5.172-2.069l19.042-18.134h27.886v95.536c0 4.143 3.357 7.5 7.5 7.5s7.5-3.357 7.5-7.5v-103.037c0-4.143-3.357-7.5-7.5-7.5h-10.538l-26.245-20.621c-1.321-1.038-2.953-1.603-4.634-1.603h-35.464c1.949-3.578 3.581-7.35 4.9-11.265h71.981zm-39.396-56.568h13.132c4.143 0 7.5-3.357 7.5-7.5v-26.265c0-4.143-3.357-7.5-7.5-7.5h-13.132c-3.105 0-5.632-2.526-5.632-5.632s2.526-5.632 5.632-5.632h13.132c4.143 0 7.5-3.357 7.5-7.5v-11.112c0-3.105 2.527-5.632 5.633-5.632s5.632 2.526 5.632 5.632v112.709h-11.265v-22.805c0-4.143-3.357-7.5-7.5-7.5h-13.132c-3.105 0-5.632-2.526-5.632-5.632s2.526-5.631 5.632-5.631zm5.631 26.268v15.3h-34.915c.27-2.515.417-5.067.417-7.652 0-2.584-.147-5.134-.417-7.647h34.915zm-113.137-47.976v6.126c0 4.143 3.357 7.5 7.5 7.5s7.5-3.357 7.5-7.5v-6.126c14.964 2.008 28.073 9.926 36.901 21.329l-5.285 3.051c-3.587 2.07-4.816 6.657-2.745 10.245 1.389 2.406 3.91 3.751 6.502 3.751 1.272 0 2.562-.324 3.743-1.006l5.308-3.064c2.711 6.578 4.216 13.774 4.216 21.318s-1.505 14.741-4.216 21.319l-5.308-3.065c-3.589-2.07-8.175-.843-10.245 2.745-2.071 3.587-.842 8.174 2.745 10.245l5.285 3.051c-8.828 11.404-21.938 19.322-36.901 21.33v-6.127c0-4.143-3.357-7.5-7.5-7.5s-7.5 3.357-7.5 7.5v6.127c-14.964-2.008-28.073-9.926-36.901-21.33l5.285-3.051c3.587-2.071 4.816-6.658 2.745-10.245-2.07-3.588-6.66-4.814-10.245-2.745l-5.308 3.065c-2.711-6.578-4.216-13.774-4.216-21.319 0-7.544 1.506-14.74 4.216-21.318l5.308 3.064c1.182.682 2.471 1.006 3.743 1.006 2.592 0 5.113-1.345 6.502-3.751 2.071-3.588.842-8.175-2.745-10.245l-5.285-3.051c8.828-11.403 21.937-19.321 36.901-21.329zm-63.224 47.976c-.27 2.514-.417 5.063-.417 7.647 0 2.586.147 5.137.418 7.652h-73.787c.27-2.515.418-5.067.418-7.652 0-2.584-.147-5.134-.417-7.647zm-152.009-47.976v6.126c0 4.143 3.358 7.5 7.5 7.5s7.5-3.357 7.5-7.5v-6.126c14.963 2.008 28.073 9.926 36.901 21.329l-5.284 3.051c-3.587 2.07-4.817 6.657-2.746 10.245 1.389 2.406 3.911 3.751 6.502 3.751 1.272 0 2.562-.324 3.743-1.006l5.308-3.064c2.711 6.578 4.216 13.774 4.216 21.318s-1.505 14.741-4.216 21.318l-5.308-3.064c-3.587-2.07-8.174-.843-10.245 2.745-2.071 3.587-.842 8.174 2.745 10.245l5.285 3.051c-8.828 11.403-21.938 19.322-36.901 21.33v-6.127c0-4.143-3.358-7.5-7.5-7.5s-7.5 3.357-7.5 7.5v6.127c-14.964-2.008-28.073-9.926-36.901-21.33l5.284-3.051c3.587-2.071 4.816-6.658 2.745-10.245-2.071-3.588-6.658-4.814-10.245-2.745l-5.307 3.064c-2.711-6.578-4.216-13.774-4.216-21.318s1.505-14.74 4.216-21.318l5.308 3.064c1.181.683 2.47 1.006 3.743 1.006 2.592 0 5.113-1.346 6.502-3.751 2.071-3.588.841-8.175-2.746-10.245l-5.284-3.05c8.828-11.404 21.937-19.322 36.901-21.33zm-97.065 63.276v-15.3h33.842c-.27 2.514-.417 5.063-.417 7.647 0 2.586.147 5.137.418 7.652h-33.843zm148.181 48.488c10.919-8.503 19.297-20.109 23.804-33.488h80.391c4.507 13.379 12.885 24.985 23.805 33.488z"/><path d="m365.098 334.211c15.275 0 27.703-12.428 27.703-27.703s-12.428-27.703-27.703-27.703-27.703 12.428-27.703 27.703 12.427 27.703 27.703 27.703zm0-40.406c7.005 0 12.703 5.698 12.703 12.703s-5.698 12.703-12.703 12.703-12.703-5.698-12.703-12.703 5.698-12.703 12.703-12.703z"/><path d="m149.865 334.211c15.275 0 27.703-12.428 27.703-27.703s-12.428-27.703-27.703-27.703-27.703 12.428-27.703 27.703 12.427 27.703 27.703 27.703zm0-40.406c7.004 0 12.703 5.698 12.703 12.703s-5.699 12.703-12.703 12.703-12.703-5.698-12.703-12.703 5.698-12.703 12.703-12.703z"/><path d="m68.11 91.925c-4.142 0-7.5 3.357-7.5 7.5v70.711c0 4.143 3.358 7.5 7.5 7.5h113.207c4.142 0 7.5-3.357 7.5-7.5v-70.711c0-4.143-3.358-7.5-7.5-7.5zm7.5 15h47.125v55.711h-47.125zm98.206 55.711h-36.082v-55.711h36.082z"/><path d="m348.624 173.385c1.249-2.599.897-5.683-.903-7.935l-56.569-70.711c-1.423-1.778-3.578-2.814-5.856-2.814h-73.742c-4.142 0-7.5 3.357-7.5 7.5v70.711c0 4.143 3.358 7.5 7.5 7.5h130.312c2.881 0 5.509-1.653 6.758-4.251zm-129.571-10.749v-55.711h62.638l44.569 55.711z"/><path d="m7.5 243.297h22.8v1.18c0 4.143 3.358 7.5 7.5 7.5s7.5-3.357 7.5-7.5v-167.857h251.376l78.567 98.205c1.423 1.779 3.578 2.814 5.856 2.814h40.614c4.143 0 7.5-3.357 7.5-7.5s-3.357-7.5-7.5-7.5h-37.01l-78.567-98.205c-1.424-1.779-3.578-2.814-5.856-2.814h-12.536v-7.652c0-12.49-10.162-22.652-22.652-22.652h-191.931c-12.491 0-22.652 10.162-22.652 22.652v7.652h-12.709c-4.142 0-7.5 3.357-7.5 7.5v58.16h-22.8c-4.142 0-7.5 3.357-7.5 7.5v101.017c0 4.142 3.358 7.5 7.5 7.5zm193.522-181.677h-24.396v-15.305h24.396zm15-15.305h24.396v15.305h-24.396zm-54.396 15.305h-24.396v-15.305h24.396zm-39.397 0h-24.396v-15.305h24.396zm150.515-7.652v7.652h-17.326v-15.305h9.673c4.221 0 7.653 3.433 7.653 7.653zm-207.236 0c0-4.22 3.433-7.652 7.652-7.652h9.673v15.304h-17.325zm-50.508 88.312h15.3v86.017h-15.3z"/><path d="m211.553 190.921c-4.142 0-7.5 3.357-7.5 7.5s3.358 7.5 7.5 7.5h30.305c4.142 0 7.5-3.357 7.5-7.5s-3.358-7.5-7.5-7.5z"/><path d="m338.076 427.475c-1.407-1.406-3.314-2.196-5.304-2.196h-18.269l-11.983-11.128c-1.388-1.288-3.21-2.004-5.104-2.004h-25.254c-1.989 0-3.896.79-5.304 2.196l-25.078 25.078h-30.229c-4.142 0-7.5 3.357-7.5 7.5s3.358 7.5 7.5 7.5h33.335c1.989 0 3.896-.79 5.303-2.196l25.078-25.078h19.202l11.983 11.128c1.388 1.288 3.21 2.004 5.104 2.004h18.107l11.945 11.946c1.465 1.464 3.385 2.196 5.304 2.196s3.839-.732 5.304-2.196c2.929-2.93 2.929-7.678 0-10.607z"/><path d="m161.045 414.167h-32.411l-11.984-11.129c-1.387-1.288-3.21-2.004-5.104-2.004h-15.152c-1.989 0-3.897.79-5.303 2.197l-15.986 15.986h-29.219c-4.142 0-7.5 3.357-7.5 7.5s3.358 7.5 7.5 7.5h32.325c1.989 0 3.897-.79 5.303-2.197l15.986-15.986h9.101l11.984 11.129c1.387 1.288 3.21 2.004 5.104 2.004h35.356c4.142 0 7.5-3.357 7.5-7.5s-3.358-7.5-7.5-7.5z"/><path d="m427.728 410.126h-35.355c-4.143 0-7.5 3.357-7.5 7.5s3.357 7.5 7.5 7.5h35.355c4.143 0 7.5-3.357 7.5-7.5s-3.358-7.5-7.5-7.5z"/><path d="m468.134 410.126h-15.152c-4.143 0-7.5 3.357-7.5 7.5s3.357 7.5 7.5 7.5h15.152c4.143 0 7.5-3.357 7.5-7.5s-3.358-7.5-7.5-7.5z"/></g></g></svg>