<?xml version="1.0" encoding="iso-8859-1"?>
<!-- Generator: Adobe Illustrator 19.0.0, SVG Export Plug-In . SVG Version: 6.00 Build 0)  -->
<svg version="1.1" fill="#FFFFFF" id="Capa_1" xmlns="http://www.w3.org/2000/svg" xmlns:xlink="http://www.w3.org/1999/xlink" x="0px" y="0px"
	 viewBox="0 0 512 512" style="enable-background:new 0 0 512 512;" xml:space="preserve">
<g>
	<g>
		<path d="M431.932,120.5V98.668c0-30.565-24.866-55.433-55.433-55.433s-55.433,24.866-55.433,55.433V120.5H190.933V98.668
			c0-30.565-24.867-55.434-55.433-55.434S80.068,68.101,80.068,98.668V120.5H0V391.5h110.069v-51.833
			c0-14.023,11.409-25.432,25.431-25.432c14.023,0,25.431,11.409,25.431,25.432V391.5h160.135v21.832
			c0,30.565,24.866,55.434,55.433,55.434s55.433-24.867,55.433-55.434V391.5H512V120.5H431.932z M240.999,361.499h-50.066v-21.832
			c0-30.565-24.867-55.434-55.433-55.434S80.068,309.1,80.068,339.667v21.832H30.001V150.501h80.068V98.668
			c0-14.023,11.409-25.432,25.431-25.432c14.023,0,25.431,11.409,25.431,25.432v51.833h80.068v80.068h51.833
			c14.023,0,25.432,11.408,25.432,25.431c0,14.024-11.409,25.432-25.432,25.432h-51.833V361.499z M481.999,361.499h-80.068v51.833
			c0,14.023-11.409,25.432-25.431,25.432c-14.023,0-25.431-11.409-25.431-25.432v-51.833h-80.068v-50.065h21.832
			c30.565,0,55.434-24.867,55.434-55.434s-24.867-55.433-55.434-55.433h-21.832v-50.066h80.068V98.668
			c0-14.023,11.409-25.431,25.431-25.431c14.023,0,25.431,11.408,25.431,25.431v51.833h80.068V361.499z"/>
	</g>
</g>
</svg>
