<?xml version="1.0" encoding="iso-8859-1"?>
<!-- Generator: Adobe Illustrator 19.0.0, SVG Export Plug-In . SVG Version: 6.00 Build 0)  -->
<svg version="1.1" id="Capa_1" xmlns="http://www.w3.org/2000/svg" xmlns:xlink="http://www.w3.org/1999/xlink" x="0px" y="0px"
	 viewBox="0 0 512 512" style="enable-background:new 0 0 512 512;" xml:space="preserve">
<path style="fill:#F44336;" d="M154.667,426.667C69.376,426.667,0,350.101,0,256S69.376,85.333,154.667,85.333
	S309.333,161.899,309.333,256c0,59.051,27.947,128,106.667,128c34.133,0,74.667-9.259,74.667-53.333
	c0-32.555-34.539-50.048-71.104-68.544c-38.464-19.477-78.229-39.616-78.229-80.789c-3.509-37.728,24.231-71.158,61.96-74.667
	c4.227-0.393,8.48-0.393,12.707,0c40.367,2.03,72.637,34.3,74.667,74.667c0,5.891-4.776,10.667-10.667,10.667
	c-5.891,0-10.667-4.776-10.667-10.667C467.54,152.654,444.679,129.794,416,128c-26.203-3.253-50.081,15.352-53.333,41.554
	c-0.486,3.911-0.486,7.868,0,11.779c0,28.053,32.32,44.416,66.539,61.76C468.011,262.72,512,284.992,512,330.667
	c0,47.445-34.987,74.667-96,74.667c-88.427,0-128-75.008-128-149.333c0-82.347-59.733-149.333-133.333-149.333
	S21.333,173.653,21.333,256s59.733,149.333,133.333,149.333c47.324-0.902,90.426-27.428,112.555-69.269
	c3.055-5.037,9.615-6.643,14.652-3.588c4.836,2.934,6.542,9.132,3.887,14.127C259.881,395.152,209.676,425.814,154.667,426.667z"/>
<g>
</g>
<g>
</g>
<g>
</g>
<g>
</g>
<g>
</g>
<g>
</g>
<g>
</g>
<g>
</g>
<g>
</g>
<g>
</g>
<g>
</g>
<g>
</g>
<g>
</g>
<g>
</g>
<g>
</g>
</svg>
